# xmcd
#
# Track frame offsets:
#	150
#	13195
#	24520
#	37008
#	48219
#	59119
#	69437
#	80282
#	93513
#	106431
#	118675
#	130527
#	142140
#	154497
#	165975
#	177306
#	188754
#	198921
#	208641
#	222268
#	233465
#	246414
#	257719
#	270057
#	280083
#	292368
#	302547
#	313016
#	325979
#	335760
#	347663
#
# Disc length: 4774 seconds
#
# Revision: 0
# Processed by: cddbd v1.5.1PL0 Copyright (c) Steve Scherf et al.
# Submitted via: EasyCDDAExtractor 4.6.9.1
#
DISCID=cf12a41f
DTITLE=Ernest Tubb - The Yellow Rose Of Texas - Disc 2
DYEAR=1993
DGENRE=Country
TTITLE0=There's No Fool Like A Young Fool
TTITLE1=I Knew The Moment I Lost You
TTITLE2=You're Breaking My Heart
TTITLE3=When A Soldier Knocks And finds Nobody Home
TTITLE4=This Troubled Mind O'mine
TTITLE5=My Hillbilly Baby
TTITLE6=Daisy May
TTITLE7=Loving You Is My Weakness
TTITLE8=Treat Her Right
TTITLE9=I Want You To Know (I Love You)
TTITLE10=Don't Forbid Me
TTITLE11=God's Eyes
TTITLE12=My Treasure
TTITLE13=Leave Me
TTITLE14=Mister Love
TTITLE15=I Always Went Through
TTITLE16=Go Home
TTITLE17=Hey Mr. Bluebird
TTITLE18=How Do We Know
TTITLE19=House Of Glass
TTITLE20=Heaven Help Me
TTITLE21=Tangled Mind
TTITLE22=Home Of The Blues
TTITLE23=I Found My Girl In The U. S. A.
TTITLE24=Geisha Girl
TTITLE25=I Wonder Why I Worry Over You
TTITLE26=Deep Purple Blues
TTITLE27=Please Keep Me In Mind
TTITLE28=Deep Purple Blues
TTITLE29=Please Keep Me In Mind
TTITLE30=I Wonder Why I Worry Over You
EXTD=
EXTT0=
EXTT1=
EXTT2=
EXTT3=
EXTT4=
EXTT5=
EXTT6=
EXTT7=
EXTT8=
EXTT9=
EXTT10=
EXTT11=
EXTT12=
EXTT13=With The Wilburn Brothers
EXTT14=With The Wilburn Brothers
EXTT15=
EXTT16=
EXTT17=With The Wilburn Brothers
EXTT18=With the Wilburn Brothers
EXTT19=
EXTT20=
EXTT21=
EXTT22=
EXTT23=
EXTT24=
EXTT25=
EXTT26=
EXTT27=
EXTT28=
EXTT29=
EXTT30=
PLAYORDER=
